HIERARCHY
ROOT RootJoint
{
    OFFSET   0.000000   0.000000   0.000000
    CHANNELS 6 Xposition Yposition Zposition Xrotation Yrotation Zrotation
    JOINT pelvis_lowerback
    {
        OFFSET   0.000000   0.093605   0.000000
        CHANNELS 3 Xrotation Yrotation Zrotation
        JOINT lowerback_torso
        {
            OFFSET   0.000000   0.100000   0.000000
            CHANNELS 3 Xrotation Yrotation Zrotation
            JOINT torso_head
            {
                OFFSET   0.000000   0.282350   0.000000
                CHANNELS 3 Xrotation Yrotation Zrotation
                End Site
                {
                    OFFSET   0.000000   0.192650   0.000000
                }
            }
            JOINT rTorso_Clavicle
            {
                OFFSET  -0.001000   0.157500   0.000000
                CHANNELS 3 Xrotation Yrotation Zrotation
                JOINT rShoulder
                {
                    OFFSET  -0.117647   0.000000   0.000000
                    CHANNELS 3 Xrotation Yrotation Zrotation
                    JOINT rElbow
                    {
                        OFFSET  -0.245000   0.000000   0.000000
                        CHANNELS 3 Xrotation Yrotation Zrotation
                        JOINT rWrist
                        {
                            OFFSET  -0.240000   0.000000   0.000000
                            CHANNELS 3 Xrotation Yrotation Zrotation
                            End Site
                            {
                                OFFSET  -0.116353  -0.002500   0.000000
                            }
                        }
                    }
                }
            }
            JOINT lTorso_Clavicle
            {
                OFFSET   0.001000   0.157500   0.000000
                CHANNELS 3 Xrotation Yrotation Zrotation
                JOINT lShoulder
                {
                    OFFSET   0.117647   0.000000   0.000000
                    CHANNELS 3 Xrotation Yrotation Zrotation
                    JOINT lElbow
                    {
                        OFFSET   0.245000   0.000000   0.000000
                        CHANNELS 3 Xrotation Yrotation Zrotation
                        JOINT lWrist
                        {
                            OFFSET   0.240000   0.000000   0.000000
                            CHANNELS 3 Xrotation Yrotation Zrotation
                            End Site
                            {
                                OFFSET   0.116353  -0.002500   0.000000
                            }
                        }
                    }
                }
            }
        }
    }
    JOINT rHip
    {
        OFFSET  -0.100000  -0.051395   0.000000
        CHANNELS 3 Xrotation Yrotation Zrotation
        JOINT rKnee
        {
            OFFSET   0.000000  -0.410000   0.000000
            CHANNELS 3 Xrotation Yrotation Zrotation
            JOINT rAnkle
            {
                OFFSET   0.000000  -0.390000   0.000000
                CHANNELS 3 Xrotation Yrotation Zrotation
                JOINT rToeJoint
                {
                    OFFSET   0.000000  -0.050000   0.130000
                    CHANNELS 3 Xrotation Yrotation Zrotation
                    End Site
                    {
                        OFFSET  -0.010000   0.002000   0.060000
                    }
                }
            }
        }
    }
    JOINT lHip
    {
        OFFSET   0.100000  -0.051395   0.000000
        CHANNELS 3 Xrotation Yrotation Zrotation
        JOINT lKnee
        {
            OFFSET   0.000000  -0.410000   0.000000
            CHANNELS 3 Xrotation Yrotation Zrotation
            JOINT lAnkle
            {
                OFFSET   0.000000  -0.390000   0.000000
                CHANNELS 3 Xrotation Yrotation Zrotation
                JOINT lToeJoint
                {
                    OFFSET   0.000000  -0.050000   0.130000
                    CHANNELS 3 Xrotation Yrotation Zrotation
                    End Site
                    {
                        OFFSET   0.010000   0.002000   0.060000
                    }
                }
            }
        }
    }
}
MOTION
Frames: 12
Frame Time:   0.008333
 -2.647632   0.884679   5.753901 -13.064845  -4.428183  -1.769217  12.055576  -6.265124   2.143483   7.739120  -4.092987   4.686664   1.607440   0.076819  -0.656452   4.278994  -2.666406  13.861095  10.688102   4.052962  41.444464  -0.000810  13.897130   0.000398   8.003611   1.422643   0.564762   1.947022  -3.026918 -11.056386   0.172067  -9.757136 -41.462990  -0.004194 -29.820833   0.008434   8.384486  -4.781293   0.851032 -10.824880  -2.546449  -0.427183  27.621574  -0.002101   0.006507  -3.637640  -9.189443  -2.689787   0.027985   0.003581   0.003472  19.942687   4.484657   4.178889  52.017484   0.010606   0.035715  11.183725   2.020185  -3.084473 -22.473669  -0.017628   0.068217
 -2.650722   0.887048   5.766924 -13.148091  -4.488767  -1.895147  12.046424  -5.953597   2.189469   7.654667  -4.068042   4.651038   1.583205   0.021750  -0.499872   4.235522  -2.579704  13.720359  10.760167   4.142079  41.702658  -0.000646  14.096049  -0.000134   7.991719   1.302352   0.521223   1.991302  -2.871183 -11.160264   0.506207  -9.477482 -41.800502  -0.005580 -29.141558   0.009193   8.342059  -4.771179   0.862209  -9.682198  -2.754122  -0.184548  27.495044  -0.001518   0.005403  -4.616283  -8.991782  -2.884598  -0.007834   0.002852   0.002780  18.582466   4.566036   4.444029  54.324871   0.010591   0.030198  10.074054   2.805555  -2.892182 -20.324771  -0.019824   0.069382
 -2.653729   0.889639   5.779535 -13.188596  -4.635319  -1.983193  12.047681  -5.616988   2.161897   7.569520  -4.006575   4.592560   1.561370  -0.031619  -0.346332   4.169705  -2.477597  13.591613  10.805341   4.254519  41.969607  -0.000552  14.304794  -0.000586   7.980166   1.317996   0.508551   2.063720  -2.696488 -11.227457   0.846061  -9.192568 -42.110162  -0.006810 -28.489772   0.009357   8.301947  -4.671273   0.816614  -8.490958  -2.919078   0.022165  27.090053  -0.000647   0.005170  -5.403217  -8.734909  -3.063767  -0.037470   0.002275   0.002225  17.101668   4.633645   4.619293  56.374925   0.009637   0.024262   9.011778   3.539096  -2.693777 -18.467726  -0.020033   0.066418
 -2.656668   0.892183   5.791901 -13.225806  -4.824548  -2.042496  12.063969  -5.271737   2.090259   7.498437  -3.919114   4.508063   1.544140  -0.082195  -0.207824   4.098418  -2.373673  13.465118  10.838796   4.369743  42.223700  -0.000546  14.507762  -0.000940   7.968266   1.395634   0.509492   2.150332  -2.509318 -11.266449   1.180146  -8.910276 -42.390379  -0.007673 -27.873800   0.009250   8.263333  -4.526279   0.753184  -7.281168  -3.040460   0.197145  26.583889   0.000164   0.005267  -6.107788  -8.462942  -3.234569  -0.059082   0.001814   0.001781  15.573108   4.691419   4.749544  58.232927   0.008272   0.019025   8.013101   4.219436  -2.494419 -16.779289  -0.019299   0.061990
 -2.659547   0.894549   5.804107 -13.272293  -5.039173  -2.087221  12.092857  -4.924040   1.995337   7.443652  -3.814262   4.405050   1.531011  -0.129490  -0.082971   4.028751  -2.273578  13.334501  10.867259   4.479679  42.456221  -0.000606  14.699905  -0.001194   7.956810   1.492539   0.507465   2.245133  -2.315887 -11.287634   1.504381  -8.634411 -42.645409  -0.008198 -27.293289   0.008990   8.226029  -4.354698   0.688869  -6.069511  -3.127973   0.350212  26.053531   0.000800   0.005422  -6.777227  -8.186739  -3.394077  -0.074460   0.001447   0.001425  14.036679   4.738746   4.862074  59.929601   0.006680   0.014658   7.075615   4.850659  -2.296357 -15.238913  -0.018118   0.056926
 -2.662368   0.896679   5.816191 -13.330343  -5.273338  -2.127652  12.130758  -4.578268   1.889211   7.403251  -3.697597   4.290596   1.520973  -0.173436   0.030671   3.962854  -2.178901  13.198544  10.893212   4.581767  42.664865  -0.000702  14.879749  -0.001350   7.946138   1.589686   0.494017   2.344906  -2.120561 -11.298708   1.816961  -8.367268 -42.879750  -0.008460 -26.746910   0.008615   8.189975  -4.165212   0.627792  -4.867100  -3.187215   0.489207  25.534105   0.001249   0.005533  -7.433048  -7.909205  -3.540200  -0.085272   0.001154   0.001141  12.515476   4.774595   4.970545  61.483960   0.004961   0.011078   6.196112   5.436535  -2.101180 -13.832132  -0.016789   0.051628
 -2.665128   0.898552   5.828169 -13.398606  -5.524961  -2.170532  12.174434  -4.238155   1.778943   7.374387  -3.573369   4.169999   1.513178  -0.214183   0.134988   3.900934  -2.089650  13.058825  10.917350   4.675822  42.850609  -0.000808  15.047363  -0.001420   7.936325   1.680104   0.466627   2.447342  -1.926669 -11.304988   2.116834  -8.110479 -43.097153  -0.008529 -26.233199   0.008140   8.155182  -3.963607   0.569593  -3.681874  -3.221475   0.619265  25.042133   0.001534   0.005564  -8.082857  -7.630967  -3.672066  -0.096466   0.000920   0.000913  11.024115   4.798362   5.081411  62.910325   0.003204   0.008154   5.371310   5.980490  -1.910085 -12.546612  -0.015476   0.046335
 -2.667653   0.900832   5.840004 -13.435602  -5.792855  -2.139503  12.265045  -3.884150   1.659716   7.249680  -3.512723   3.970635   1.529090  -0.276832   0.266227   3.821849  -2.070960  12.909194  10.920432   4.850344  43.101335  -0.001028  15.370082  -0.001576   7.906186   1.624735   0.403084   2.513797  -1.680026 -11.295631   2.469639  -7.767451 -43.325951  -0.008926 -25.605686   0.008369   8.101107  -3.952144   0.459550  -2.385365  -3.310257   0.625422  24.219224   0.001960   0.007048  -8.510282  -7.260437  -3.587538  -0.141874   0.000793   0.000730   9.603136   4.761586   5.015331  63.462725   0.002166   0.005675   4.033243   6.550268  -1.638432 -11.522639  -0.013287   0.040094
 -2.670063   0.903110   5.851593 -13.447557  -6.046789  -2.086614  12.361713  -3.537075   1.527109   7.120112  -3.441138   3.767272   1.540192  -0.338679   0.387528   3.733887  -2.047594  12.764632  10.909213   5.028471  43.349562  -0.001198  15.687343  -0.001764   7.872828   1.657477   0.349797   2.597002  -1.426114 -11.261433   2.818582  -7.427370 -43.533362  -0.009009 -25.008069   0.008437   8.046196  -3.889507   0.332386  -1.107419  -3.392696   0.604341  23.327229   0.002206   0.008332  -8.824356  -6.908726  -3.510828  -0.260499   0.000750   0.000583   8.111033   4.719424   4.911637  63.748695   0.001578   0.004052   2.761461   7.074404  -1.369952 -10.634798  -0.010753   0.034320
 -2.672378   0.905242   5.863024 -13.475404  -6.281972  -2.033179  12.475772  -3.192516   1.395195   7.010784  -3.353668   3.569935   1.552228  -0.396860   0.498223   3.644562  -2.018896  12.620987  10.892395   5.200648  43.580478  -0.001338  15.988353  -0.001985   7.840089   1.726348   0.299683   2.685623  -1.174116 -11.210525   3.154853  -7.099131 -43.719436  -0.008795 -24.445272   0.008423   7.993436  -3.796024   0.208728   0.154266  -3.460062   0.573998  22.462188   0.002215   0.009050  -9.072828  -6.574813  -3.444290  -0.467206   0.000742   0.000430   6.594469   4.678800   4.801498  63.924270   0.001199   0.002935   1.565929   7.556872  -1.108392  -9.828448  -0.008278   0.029276
 -2.674605   0.907170   5.874367 -13.529976  -6.502272  -1.988309  12.600946  -2.850299   1.270005   6.924886  -3.252062   3.381983   1.566931  -0.450889   0.600067   3.557900  -1.988163  12.477418  10.873926   5.363108  43.790862  -0.001449  16.270852  -0.002186   7.809062   1.804164   0.245649   2.778004  -0.925281 -11.150976   3.477782  -6.783349 -43.887607  -0.008376 -23.915710   0.008364   7.942897  -3.681374   0.094941   1.400433  -3.517195   0.541632  21.658509   0.002068   0.009295  -9.286487  -6.260361  -3.383773  -0.752918   0.000730   0.000272   5.086788   4.640951   4.693773  64.040199   0.000931   0.002141   0.444396   8.001514  -0.855160  -9.093689  -0.006038   0.024895
 -2.676755   0.908879   5.885668 -13.610750  -6.710329  -1.956462  12.729110  -2.513050   1.154271   6.858168  -3.139712   3.205307   1.583588  -0.500913   0.694519   3.475819  -1.957594  12.335370  10.855696   5.514583  43.981568  -0.001530  16.534656  -0.002328   7.779881   1.879689   0.185639   2.873861  -0.680123 -11.088397   3.787893  -6.479807 -44.041425  -0.007836 -23.417293   0.008268   7.894512  -3.549165  -0.009518   2.629877  -3.564880   0.511215  20.926207   0.001832   0.009181  -9.481678  -5.962810  -3.327198  -1.107387   0.000693   0.000107   3.607570   4.605295   4.592099  64.117656   0.000733   0.001572  -0.606820   8.411653  -0.611068  -8.423528  -0.004098   0.021097
